<svg id="Filled_stroke_cut_Ex" height="512" viewBox="0 0 512 512" width="512" xmlns="http://www.w3.org/2000/svg" data-name="Filled stroke cut Ex"><g><path d="m40 152h432v304h-432z" fill="#80daff"/><path d="m24 56h464v96h-464z" fill="#25b1fa"/><path d="m280 64v-16h-256a8 8 0 0 0 -8 8v96a8 8 0 0 0 8 8h8v24h16v-24h224v-16h-240v-80z"/><path d="m488 48h-8v96h-112v16h96v240h16v-240h8a8 8 0 0 0 8-8v-96a8 8 0 0 0 -8-8z"/><path d="m24 456h464v32h-464z" fill="#25b1fa"/><path d="m447.92 68.59 17.088-30.91c2.1-6.266-2.873-13.439-9.476-13.68l-29.341 5.337a16.471 16.471 0 0 0 -10.039 2.863l-21.731 15.07-73.071-10.031-21.87 17.391 57.7 27.82-37.238 35.176-32.584-5.783-15.358 8.418 43.262 37.946z" fill="#fdbf44"/><path d="m315.264 166.207a7.993 7.993 0 0 1 -5.278-1.986l-43.261-37.946a8 8 0 0 1 1.43-13.029l15.361-8.418a7.98 7.98 0 0 1 5.242-.862l28.621 5.079 25.866-24.434-47.239-22.775a8 8 0 0 1 -1.5-13.468l21.87-17.39a8 8 0 0 1 6.067-1.665l69.985 9.611 19.166-13.294a24.282 24.282 0 0 1 13.933-4.3h.009l28.565-5.2a8.024 8.024 0 0 1 1.724-.124 18.7 18.7 0 0 1 16.775 24.211 8.073 8.073 0 0 1 -.586 1.333l-17.093 30.911a7.991 7.991 0 0 1 -2.523 2.758l-132.658 89.616a7.981 7.981 0 0 1 -4.476 1.372zm-29.4-44.423 30.036 26.339 125.949-85.086 15.644-28.3a2.8 2.8 0 0 0 -.537-1.6 2.871 2.871 0 0 0 -1.235-1.04l-28.1 5.111a8.182 8.182 0 0 1 -1.725.124 8.446 8.446 0 0 0 -5.189 1.448l-21.728 15.068a8.008 8.008 0 0 1 -5.646 1.351l-69.682-9.569-9.215 7.329 46.222 22.285a8 8 0 0 1 2.019 13.021l-37.239 35.176a8 8 0 0 1 -6.89 2.062l-29.813-5.291z"/><path d="m64 88h176v32h-176z" fill="#fdbf44"/><path d="m240 128h-176a8 8 0 0 1 -8-8v-32a8 8 0 0 1 8-8h176a8 8 0 0 1 8 8v32a8 8 0 0 1 -8 8zm-168-16h160v-16h-160z"/></g><path d="m72 192h160v264h-160z" fill="#fcfeff"/><path d="m488 448h-8v-32h-16v32h-224v-256a8 8 0 0 0 -8-8h-160a8 8 0 0 0 -8 8v256h-16v-248h-16v248h-8a8 8 0 0 0 -8 8v32a8 8 0 0 0 8 8h464a8 8 0 0 0 8-8v-32a8 8 0 0 0 -8-8zm-408-248h144v248h-144zm400 280h-448v-16h448z"/><path d="m264 192h176v216h-176z" fill="#fcfeff"/><path d="m104 272h96v48h-96z" fill="#fdbf44"/><path d="m200 264h-4.253l-37.6-45.122a8 8 0 0 0 -12.292 0l-37.602 45.122h-4.253a8 8 0 0 0 -8 8v48a8 8 0 0 0 8 8h96a8 8 0 0 0 8-8v-48a8 8 0 0 0 -8-8zm-48-27.5 22.92 27.5h-45.84zm40 75.5h-80v-32h80z"/><path d="m96 344h16v32h-16z"/><path d="m264 376h176v32h-176z" fill="#fdbf44"/><path d="m440 184h-176a8 8 0 0 0 -8 8v216a8 8 0 0 0 8 8h176a8 8 0 0 0 8-8v-216a8 8 0 0 0 -8-8zm-8 16v168h-160v-168zm0 200h-160v-16h160z"/></svg>