<svg height="512" viewBox="0 0 512 512" width="512" xmlns="http://www.w3.org/2000/svg"><g id="Beauty_Curl_Hair" data-name="Beauty Curl Hair"><g id="Flat"><path d="m456 392h-400a8 8 0 0 1 -8-8v-224a8 8 0 0 1 1.2-4.212l11.885-19.188a7.948 7.948 0 0 1 .766-1.039c20.7-23.786 47.781-46.8 80.505-68.409a206.172 206.172 0 0 1 227.311.015c32.708 21.6 59.787 44.608 80.482 68.394a7.948 7.948 0 0 1 .766 1.039l11.885 19.188a8 8 0 0 1 1.2 4.212v224a8 8 0 0 1 -8 8z" fill="#ffd740"/><path d="m462.8 155.788-11.885-19.188a7.948 7.948 0 0 0 -.766-1.039c-20.695-23.786-47.774-46.8-80.482-68.394a207.265 207.265 0 0 0 -22.134-12.729c-23.799 132.786-139.897 233.562-279.533 233.562-6.725 0-13.391-.251-20-.711v96.711a8 8 0 0 0 8 8h400a8 8 0 0 0 8-8v-224a8 8 0 0 0 -1.2-4.212z" fill="#ffc400"/><path d="m256 512.024a119.047 119.047 0 0 1 -65.709-19.779c-43.015-28.401-94.291-73.022-94.291-124.305v-98.9a8 8 0 0 1 1.12-4.083l18.43-31.057a8.411 8.411 0 0 1 .474-.709c41.472-55.439 133.488-87.422 137.384-88.756a7.992 7.992 0 0 1 5.184 0c3.9 1.334 95.912 33.317 137.384 88.756a8.411 8.411 0 0 1 .474.709l18.43 31.058a8 8 0 0 1 1.12 4.083v98.9c0 51.283-51.276 95.9-94.292 124.307a119.083 119.083 0 0 1 -65.708 19.776z" fill="#ffdfd4"/><path d="m308.866 166.277a418.333 418.333 0 0 0 -50.274-21.845 7.992 7.992 0 0 0 -5.184 0c-3.9 1.334-95.912 33.317-137.384 88.756a8.411 8.411 0 0 0 -.474.709l-18.43 31.058a8 8 0 0 0 -1.12 4.083v98.9q0 2.415.15 4.809a280.38 280.38 0 0 1 212.716-206.47z" fill="#f9d4c7"/><path d="m172 456a262.732 262.732 0 0 1 -30.134-1.748c15.237 14.585 32.4 27.415 48.425 37.993a119.041 119.041 0 0 0 131.417 0c43.016-28.401 94.292-73.022 94.292-124.305v-81.956c-36.613 99.245-132.039 170.016-244 170.016z" fill="#f9d4c7"/><rect fill="#ce93d8" height="80" rx="24" width="160" x="176" y="8"/><path d="m445.821 209.362a23.921 23.921 0 0 1 -16.97-7.018l-79.195-79.195a24.028 24.028 0 0 1 0-33.939l22.626-22.63a24 24 0 0 1 33.943 0l79.2 79.2a24 24 0 0 1 0 33.943l-22.63 22.625a23.927 23.927 0 0 1 -16.974 7.014z" fill="#ce93d8"/><path d="m66.181 209.364a23.926 23.926 0 0 1 -16.969-7.015l-22.632-22.628a24 24 0 0 1 0-33.943l79.2-79.2a23.843 23.843 0 0 1 16.971-7.029 23.841 23.841 0 0 1 16.971 7.031l22.628 22.632a24.03 24.03 0 0 1 0 33.936l-79.2 79.2a23.93 23.93 0 0 1 -16.969 7.016z" fill="#ce93d8"/><path d="m417.539 199.029a7.97 7.97 0 0 1 -5.657-2.343l-56.568-56.568a8 8 0 0 1 0-11.314l39.6-39.6a32 32 0 0 1 45.255 0l22.627 22.627a32 32 0 0 1 0 45.255l-39.6 39.6a7.976 7.976 0 0 1 -5.657 2.343z" fill="#ffc400"/><path d="m304 104h-96a8 8 0 0 1 -7.871-9.431l13.611-74.862a23.989 23.989 0 0 1 23.613-19.707h37.294a23.989 23.989 0 0 1 23.613 19.707l13.611 74.862a8 8 0 0 1 -7.871 9.431z" fill="#ffd740"/><path d="m240 104a8 8 0 0 1 -8-8v-16a8 8 0 0 1 16 0v16a8 8 0 0 1 -8 8z" fill="#ffc400"/><path d="m94.461 199.029a7.976 7.976 0 0 1 -5.657-2.343l-39.6-39.6a32 32 0 0 1 0-45.255l22.629-22.625a32 32 0 0 1 45.255 0l39.6 39.6a8 8 0 0 1 0 11.314l-56.568 56.568a7.976 7.976 0 0 1 -5.659 2.341z" fill="#ffd740"/><path d="m344.07 166.41a8 8 0 1 1 6.87-3.89 8.009 8.009 0 0 1 -6.87 3.89zm-28.08-15.35a7.859 7.859 0 0 1 -3.58-.85 430.575 430.575 0 0 0 -48.63-20.91 8 8 0 1 1 5.18-15.14 448.343 448.343 0 0 1 50.61 21.74 8 8 0 0 1 -3.58 15.16z" fill="#f2b200"/><g fill="#ffc400"><path d="m163.173 169.307a8 8 0 0 1 -4.216-14.8c9.826-6.078 20.447-12.013 31.57-17.641a8 8 0 0 1 7.223 14.277c-10.717 5.423-20.937 11.132-30.376 16.971a7.963 7.963 0 0 1 -4.201 1.193z"/><path d="m128 168.32a7.972 7.972 0 0 1 -5.539-2.229l-12-11.52a8 8 0 0 1 11.08-11.542l12 11.52a8 8 0 0 1 -5.541 13.771z"/><circle cx="96" cy="128" r="8"/><path d="m264 64a8 8 0 0 1 -8-8v-48a8 8 0 0 1 16 0v48a8 8 0 0 1 -8 8z"/></g><circle cx="400" cy="160" fill="#f2b200" r="8"/><path d="m424 144a8 8 0 0 1 -5.657-13.657l24-24a8 8 0 0 1 11.314 11.314l-24 24a7.976 7.976 0 0 1 -5.657 2.343z" fill="#f2b200"/><path d="m122.424 245.98a8 8 0 0 1 -6.4-12.792c24.545-32.806 67.116-57.512 98.507-72.46a8 8 0 1 1 6.879 14.445c-29.764 14.174-69.986 37.408-92.574 67.6a7.986 7.986 0 0 1 -6.412 3.207z" fill="#ffc400"/><path d="m389.576 245.98a7.985 7.985 0 0 1 -6.412-3.208c-38.545-51.527-128.848-82.893-129.756-83.2-26.773-8.923-36.176-27.216-36.563-27.99a8 8 0 0 1 14.28-7.216c.353.666 7.292 13.345 27.4 20.049 3.958 1.355 95.974 33.338 137.446 88.777a8 8 0 0 1 -6.4 12.792z" fill="#f2b200"/><circle cx="56" cy="376" fill="#ce93d8" r="56"/><circle cx="56" cy="376" fill="#ffd740" r="24"/><circle cx="456" cy="376" fill="#ce93d8" r="56"/><circle cx="456" cy="376" fill="#ffd740" r="24"/><circle cx="232" cy="32" fill="#ffe7a4" r="8"/><circle cx="408" cy="104" fill="#ffe7a4" r="8"/><circle cx="96" cy="104" fill="#ffe7a4" r="8"/><path d="m214.905 318.9-.2-.2a7.945 7.945 0 0 0 -8.975-1.531 32.6 32.6 0 0 1 -13.73 2.831c-20.21 0-34.229-13.544-34.343-13.657a8 8 0 0 0 -11.314 0l-15.79 15.79a8.2 8.2 0 0 0 -.606 11.1 8 8 0 0 0 11.71.426l10.888-10.888a73.548 73.548 0 0 0 10.884 6.489l-9.086 9.085a8 8 0 0 0 11.314 11.314l14.759-14.76a62.355 62.355 0 0 0 11.584 1.101 48.111 48.111 0 0 0 20.746-4.423 7.867 7.867 0 0 0 2.159-12.677z" fill="#424242"/><path d="m216 288a7.976 7.976 0 0 1 -5.657-2.343c-7.217-7.218-28.708-12.163-40.918-13.656a68.143 68.143 0 0 0 -29.847 7.154 8 8 0 0 1 -7.156-14.31 84.206 84.206 0 0 1 37.467-8.845 8.047 8.047 0 0 1 .931.054c3.774.443 37.263 4.716 50.837 18.289a8 8 0 0 1 -5.657 13.657z" fill="#c97e67"/><path d="m297.093 318.9.2-.2a7.947 7.947 0 0 1 8.976-1.531 32.6 32.6 0 0 0 13.731 2.831c20.211 0 34.229-13.544 34.344-13.657a8 8 0 0 1 11.313 0l15.79 15.79a8.2 8.2 0 0 1 .607 11.1 8 8 0 0 1 -11.71.426l-10.889-10.888a73.548 73.548 0 0 1 -10.884 6.489l9.086 9.085a8 8 0 1 1 -11.313 11.314l-14.76-14.76a62.355 62.355 0 0 1 -11.584 1.101 48.114 48.114 0 0 1 -20.746-4.423 7.867 7.867 0 0 1 -2.161-12.677z" fill="#424242"/><path d="m296 288a7.974 7.974 0 0 0 5.657-2.343c7.217-7.218 28.708-12.163 40.918-13.656a68.15 68.15 0 0 1 29.848 7.154 8 8 0 1 0 7.155-14.31 84.2 84.2 0 0 0 -37.468-8.845 8.051 8.051 0 0 0 -.932.054c-3.774.443-37.263 4.716-50.836 18.289a8 8 0 0 0 5.658 13.657z" fill="#c97e67"/><path d="m256 464c-34.969 0-48-24.535-48-40a8 8 0 0 1 3.16-6.37c6.977-5.3 24.248-17.63 33.931-17.63a17.155 17.155 0 0 1 10.909 4.346 17.155 17.155 0 0 1 10.909-4.346c9.683 0 26.954 12.329 33.931 17.63a8 8 0 0 1 3.16 6.37c0 15.465-13.031 40-48 40z" fill="#e56161"/><circle cx="144" cy="384" fill="#fff5f2" r="16"/><circle cx="368" cy="384" fill="#fff5f2" r="16"/><path d="m211.16 417.63a8 8 0 0 0 -3.16 6.37 33.074 33.074 0 0 0 1.046 8h93.908a33.074 33.074 0 0 0 1.046-8 8 8 0 0 0 -3.16-6.37c-.643-.488-1.375-1.037-2.179-1.63h-85.322c-.804.593-1.539 1.142-2.179 1.63z" fill="#bf4b4b"/><circle cx="272" cy="448" fill="#f29c9c" r="8"/><circle cx="56" cy="280" fill="#ce93d8" r="56"/><circle cx="56" cy="280" fill="#ffd740" r="24"/><circle cx="456" cy="280" fill="#ce93d8" r="56"/><circle cx="456" cy="280" fill="#ffd740" r="24"/></g></g></svg>