<?xml version="1.0"?>
<svg xmlns="http://www.w3.org/2000/svg" xmlns:xlink="http://www.w3.org/1999/xlink" xmlns:svgjs="http://svgjs.com/svgjs" version="1.1" width="512" height="512" x="0" y="0" viewBox="0 0 64 64" style="enable-background:new 0 0 512 512" xml:space="preserve" class=""><g>
<g xmlns="http://www.w3.org/2000/svg">
	<path d="M42,13h-7v-1c0-0.459-0.312-0.859-0.757-0.97l-8-2c-0.317-0.078-0.653,0.001-0.899,0.216   c-0.246,0.215-0.373,0.536-0.337,0.861l3,28C28.06,38.614,28.489,39,29,39h5c0.552,0,1-0.447,1-1v-1h8v5c0,0.553,0.448,1,1,1h1v6   h-1c-0.552,0-1,0.447-1,1v8c0,2.757,2.243,5,5,5h10c0.552,0,1-0.447,1-1V37h1c1.654,0,3-1.346,3-3C63,22.42,53.58,13,42,13z M33,37   h-3.102l-2.751-25.683L33,12.781V14v22V37z M47,43h2v6h-2V43z M57,61h-9c-1.654,0-3-1.346-3-3v-7h5c0.552,0,1-0.447,1-1v-8   c0-0.553-0.448-1-1-1h-5v-4h12V61z M60,35H35V15h7c10.477,0,19,8.523,19,19C61,34.552,60.551,35,60,35z" fill="#ffffff" data-original="#000000" style="" class=""/>
	<rect x="45" y="23" width="10" height="2" fill="#ffffff" data-original="#000000" style="" class=""/>
	<rect x="45" y="27" width="10" height="2" fill="#ffffff" data-original="#000000" style="" class=""/>
	<rect x="45" y="31" width="10" height="2" fill="#ffffff" data-original="#000000" style="" class=""/>
	<path d="M22,1H2C1.448,1,1,1.448,1,2v42c0,0.553,0.448,1,1,1h20c0.552,0,1-0.447,1-1V2C23,1.448,22.552,1,22,1z M21,43H3V3h18V43z" fill="#ffffff" data-original="#000000" style="" class=""/>
	<rect x="5" y="29" width="14" height="2" fill="#ffffff" data-original="#000000" style="" class=""/>
	<rect x="5" y="39" width="14" height="2" fill="#ffffff" data-original="#000000" style="" class=""/>
	<rect x="5" y="25" width="14" height="2" fill="#ffffff" data-original="#000000" style="" class=""/>
	<rect x="5" y="15" width="14" height="2" fill="#ffffff" data-original="#000000" style="" class=""/>
	<rect x="5" y="5" width="14" height="2" fill="#ffffff" data-original="#000000" style="" class=""/>
	<rect x="5" y="33" width="14" height="4" fill="#ffffff" data-original="#000000" style="" class=""/>
	<rect x="5" y="19" width="14" height="4" fill="#ffffff" data-original="#000000" style="" class=""/>
	<rect x="5" y="9" width="14" height="4" fill="#ffffff" data-original="#000000" style="" class=""/>
</g>
</g></svg>
