<?xml version="1.0"?>
<svg xmlns="http://www.w3.org/2000/svg" xmlns:xlink="http://www.w3.org/1999/xlink" xmlns:svgjs="http://svgjs.com/svgjs" version="1.1" width="512" height="512" x="0" y="0" viewBox="0 0 512 512" style="enable-background:new 0 0 512 512" xml:space="preserve" class=""><g><g xmlns="http://www.w3.org/2000/svg" id="Out_line" data-name="Out line"><path d="M104,384.10205V376H88v8.10205a17.88721,17.88721,0,0,0-6.11133,33.78662l21.06592,10.53321A1.88835,1.88835,0,0,1,102.11133,432H89.88867A1.891,1.891,0,0,1,88,430.11133V424H72v6.11133A17.91192,17.91192,0,0,0,88,447.898V456h16V447.898a17.88721,17.88721,0,0,0,6.11133-33.78662L89.04541,403.57812A1.88835,1.88835,0,0,1,89.88867,400h12.22266A1.891,1.891,0,0,1,104,401.88867V408h16v-6.11133A17.91192,17.91192,0,0,0,104,384.10205Z" fill="#ffffff" data-original="#000000" style="" class=""/><path d="M184,392h-8v16h8v16h-8v16h8a24.02718,24.02718,0,0,0,24,24h24V448H208a8.00917,8.00917,0,0,1-8-8h16V424H200V408h16V392H200a8.00917,8.00917,0,0,1,8-8h24V368H208A24.02718,24.02718,0,0,0,184,392Z" fill="#ffffff" data-original="#000000" style="" class=""/><path d="M488,384H384V328a7.99786,7.99786,0,0,0-8-8H232a8.00008,8.00008,0,0,0-8,8v9.60986a80.05847,80.05847,0,0,0-72.03,21.29l-.00622.00635a80,80,0,1,0,0,114.1875l.00622.00635a80.0417,80.0417,0,0,0,74.56006,20.73A7.97478,7.97478,0,0,0,232,496H488a7.99786,7.99786,0,0,0,8-8V392A7.99786,7.99786,0,0,0,488,384Zm-8,16v16H384V400Zm0,48H384V432h96ZM286.39,400H368v16H288A79.58865,79.58865,0,0,0,286.39,400Zm-5.08-16a79.819,79.819,0,0,0-9.34-16H368v16Zm5.08,48H368v16H281.31A78.295,78.295,0,0,0,286.39,432ZM240,336H368v16H255.96A79.1231,79.1231,0,0,0,240,342.68994ZM96,480a64,64,0,1,1,64-64A64.07239,64.07239,0,0,1,96,480Zm66.27-19.23-.00153-.00171a79.84395,79.84395,0,0,0,0-89.53662L162.27,371.23a64,64,0,1,1,0,89.54ZM368,480H255.96a81.439,81.439,0,0,0,16.01-16H368Zm112,0H384V464h96Z" fill="#ffffff" data-original="#000000" style="" class=""/><path d="M432,368V160a8,8,0,0,0-8-8H376a8,8,0,0,0-8,8v40H328a8,8,0,0,0-8,8v40H280a8,8,0,0,0-8,8v32H240V272a8,8,0,0,0-8-8H192V248a8,8,0,0,0-8-8H136a8,8,0,0,0-8,8v40H88a8,8,0,0,0-8,8v24H96V304h32v24h16V256h32v64h16V280h32v16a8,8,0,0,0,8,8h48a8,8,0,0,0,8-8V264h32v40h16V216h32v88h16V168h32V368Z" fill="#ffffff" data-original="#000000" style="" class=""/><path d="M74.34326,237.65723a8.00063,8.00063,0,0,0,11.31348,0l98.0918-98.0918L266.103,229.40625a8.00062,8.00062,0,0,0,11.55371.251L408.50635,98.80762A8.00338,8.00338,0,0,0,416,104h32a8.00008,8.00008,0,0,0,8-8V24a8.00008,8.00008,0,0,0-8-8H376a8.00008,8.00008,0,0,0-8,8V56a8.002,8.002,0,0,0,5.19287,7.49316L272.25146,164.43457,189.897,74.59375a7.9963,7.9963,0,0,0-5.72314-2.5918,8.07679,8.07679,0,0,0-5.83057,2.34082l-128,128a8.00034,8.00034,0,0,0,0,11.31446ZM183.74854,91.56543,266.103,181.40625a7.9963,7.9963,0,0,0,5.72314,2.5918,8.11591,8.11591,0,0,0,5.83057-2.34082l120-120A8.0001,8.0001,0,0,0,392,48h-8V32h56V88H424V80a8.00038,8.00038,0,0,0-13.65674-5.65723l-138.0918,138.0918L189.897,122.59375a7.9963,7.9963,0,0,0-5.72314-2.5918,8.11276,8.11276,0,0,0-5.83057,2.34082L80,220.68652,67.314,208Z" fill="#ffffff" data-original="#000000" style="" class=""/></g></g></svg>
